<svg id="Glyph" xmlns="http://www.w3.org/2000/svg" viewBox="0 0 64 64"><defs><style>.cls-1{fill:#231f20;}</style></defs><title>1</title><path class="cls-1" d="M59.37,20.37l-1.65-1.65a2.14867,2.14867,0,0,0-3.04,0L35.43,37.97a1.34619,1.34619,0,0,1-1.16.36l-6.39-1.18a1.30785,1.30785,0,0,1-1.05-1.08l-1.02-6.46a1.31623,1.31623,0,0,1,.36-1.13L45.31,9.35a2.16371,2.16371,0,0,0,0-3.04L43.63,4.63a2.2053,2.2053,0,0,0-3.04,0L21.1,24.11A7.72487,7.72487,0,0,0,19,31.15l1.32,6.42a2.43752,2.43752,0,0,1-.66,2.23l-4.47,4.47a9.45471,9.45471,0,0,1,4.54,4.54l4.47-4.47a2.43752,2.43752,0,0,1,2.23-.66L32.84,45a7.73593,7.73593,0,0,0,7.05-2.1L59.37,23.41A2.15621,2.15621,0,0,0,59.37,20.37Z" id="id_103" style="fill: rgb(241, 246, 249);"></path><path class="cls-1" d="M11.29,45.42C1.63009,45.723,1.678,59.72947,11.29014,60,20.89942,59.72414,20.94672,45.72579,11.29,45.42Z" id="id_104" style="fill: rgb(57, 72, 103);"></path></svg>