<svg version="1.1" id="Icons" xmlns="http://www.w3.org/2000/svg" xmlns:xlink="http://www.w3.org/1999/xlink" x="0px" y="0px" viewBox="0 0 32 32" style="enable-background:new 0 0 32 32;" xml:space="preserve">
<path d="M23,19c0-0.7-0.3-1.8-1.2-2.6c-0.7-0.6-1.9-1.3-3.8-1.1c-0.2,0-0.3,0-0.5,0.1c-0.2-0.6-0.3-1.2-0.5-1.8c2-1.8,3-3.9,3-6.6
	c0-3.6-2.4-4.8-2.5-4.9C17.2,2,17,2,16.7,2c-1.5,0.5-4.2,2.4-3.2,6.4c0.5,1.9,0.8,3.2,1.1,4.3c-0.3,0.2-0.7,0.5-1.1,0.7
	C10.6,15.1,9.1,16.9,9,19c0,1.3,0.6,2.8,1.8,3.9c1.3,1.3,3.2,2,5.3,1.9c0.5,0,1.1-0.1,1.6-0.2c0.1,1.6-0.3,2.4-0.6,2.8
	C16.6,28,16.1,28,16,28c-0.2,0-0.4-0.1-0.4-0.1c0,0,0,0,0.1-0.1c0.4-0.4,0.4-1,0-1.4c-0.4-0.4-1-0.4-1.4,0c-0.7,0.6-0.9,1.5-0.6,2.3
	C14.1,29.4,15,30,16,30c0.8,0,1.9-0.4,2.7-1.4c0.8-1.1,1.1-2.6,0.9-4.7C21.5,23,23,21.4,23,19z M16.9,4.1C17.3,4.5,18,5.4,18,7
	c0,1.7-0.5,3.1-1.6,4.3c-0.2-0.9-0.5-2-0.9-3.4C14.9,5.6,16.2,4.5,16.9,4.1z M16,22.8c-1.9,0.1-3.1-0.7-3.8-1.3
	c-0.9-0.8-1.2-1.8-1.1-2.4c0-1.3,1.2-2.7,3.5-3.9c0.2-0.1,0.5-0.3,0.7-0.4c0.1,0.4,0.2,0.9,0.4,1.3c-1.3,0.9-2.3,2.2-2.6,3.7
	c-0.1,0.5,0.3,1.1,0.8,1.1c0.5,0.1,1.1-0.3,1.1-0.8c0.1-0.7,0.6-1.4,1.2-1.9l0.9,3c0.1,0.5,0.3,0.9,0.3,1.4
	C16.9,22.7,16.4,22.8,16,22.8z M19.3,21.8c-0.1-0.4-0.2-0.8-0.3-1.2l-1-3.4c0,0,0.1,0,0.1,0c1-0.1,1.8,0.1,2.3,0.6
	c0.5,0.4,0.6,0.9,0.6,1.1C21,20.3,20.3,21.2,19.3,21.8z" id="id_101" style="fill: rgb(33, 42, 62);"></path>
</svg>